<svg xmlns="http://www.w3.org/2000/svg" width="1200" height="720" viewBox="0 0 1200 720">
<rect width="1200" height="720" fill="#f7f8fa"/><rect width="1200" height="74" fill="#1f2937"/>
<text x="40" y="47" fill="white" font-family="Arial" font-size="28" font-weight="700">Customer Shopping Behavior Dashboard</text>
<text x="40" y="101" fill="#4b5563" font-family="Arial" font-size="16">Portfolio preview • Public educational dataset • Python / SQL / Power BI</text>
<g font-family="Arial">
<rect x="40" y="125" width="255" height="105" rx="10" fill="white" stroke="#e5e7eb"/><text x="60" y="155" fill="#6b7280" font-size="14">TOTAL SALES</text><text x="60" y="195" fill="#111827" font-size="30" font-weight="700">$233,081</text>
<rect x="315" y="125" width="255" height="105" rx="10" fill="white" stroke="#e5e7eb"/><text x="335" y="155" fill="#6b7280" font-size="14">TRANSACTIONS</text><text x="335" y="195" fill="#111827" font-size="30" font-weight="700">3,900</text>
<rect x="590" y="125" width="255" height="105" rx="10" fill="white" stroke="#e5e7eb"/><text x="610" y="155" fill="#6b7280" font-size="14">AVG PURCHASE</text><text x="610" y="195" fill="#111827" font-size="30" font-weight="700">$59.76</text>
<rect x="865" y="125" width="295" height="105" rx="10" fill="white" stroke="#e5e7eb"/><text x="885" y="155" fill="#6b7280" font-size="14">AVG REVIEW RATING</text><text x="885" y="195" fill="#111827" font-size="30" font-weight="700">3.75 / 5</text></g>
<rect x="40" y="255" width="560" height="410" rx="10" fill="white" stroke="#e5e7eb"/><text x="65" y="290" font-family="Arial" font-size="20" font-weight="700" fill="#111827">Sales by Category</text>
<g font-family="Arial" font-size="13" fill="#374151"><text x="70" y="340">Clothing</text><rect x="160" y="325" width="360" height="25" rx="4" fill="#374151"/><text x="530" y="343">~$104K</text><text x="70" y="395">Accessories</text><rect x="160" y="380" width="290" height="25" rx="4" fill="#6b7280"/><text x="460" y="398">~$74K</text><text x="70" y="450">Footwear</text><rect x="160" y="435" width="190" height="25" rx="4" fill="#9ca3af"/><text x="360" y="453">~$36K</text><text x="70" y="505">Outerwear</text><rect x="160" y="490" width="100" height="25" rx="4" fill="#d1d5db"/><text x="270" y="508">~$19K</text></g>
<rect x="625" y="255" width="535" height="410" rx="10" fill="white" stroke="#e5e7eb"/><text x="650" y="290" font-family="Arial" font-size="20" font-weight="700" fill="#111827">Customer Age Groups</text><line x1="690" y1="610" x2="1115" y2="610" stroke="#9ca3af"/>
<g font-family="Arial" font-size="13" fill="#374151" text-anchor="middle"><rect x="710" y="500" width="55" height="110" fill="#4b5563"/><text x="738" y="630">18-24</text><rect x="790" y="440" width="55" height="170" fill="#6b7280"/><text x="818" y="630">25-34</text><rect x="870" y="410" width="55" height="200" fill="#9ca3af"/><text x="898" y="630">35-44</text><rect x="950" y="465" width="55" height="145" fill="#b8bec7"/><text x="978" y="630">45-54</text><rect x="1030" y="520" width="55" height="90" fill="#d1d5db"/><text x="1058" y="630">55+</text></g>
<text x="650" y="345" font-family="Arial" font-size="14" fill="#6b7280">Interactive Power BI version can filter by category, location, subscription and more.</text><text x="40" y="700" font-family="Arial" font-size="12" fill="#6b7280">Note: This SVG is a portfolio preview, not an interactive Power BI report.</text></svg>